name C:\Users\u0101727\Documents\MyRepositories\paper-ad\predictivesimulations_2d/Results/PredSim_2D/IK_c29.mot
datacolumns 11
datarows 47
range 0.00000000 0.44127790
endheader
time	pelvis_tilt	pelvis_tx	pelvis_ty	hip_flexion_l	hip_flexion_r	knee_angle_l	knee_angle_r	ankle_angle_l	ankle_angle_r	lumbar_extension	
          0.00000000	        -15.12270692	          0.00000000	          0.88367751	          0.94619923	         38.05465298	        -16.23474547	        -10.57176297	          5.76339658	         13.84275950	          9.62323489	
          0.00959300	        -15.08469728	          0.01477610	          0.88289114	          0.85251825	         37.57025065	        -17.72804471	         -9.96647919	          4.56274188	         13.39491295	          9.72007252	
          0.01918600	        -15.03564155	          0.02981558	          0.88205377	          0.83756600	         36.99064757	        -19.38878017	         -9.64719322	          3.25823929	         12.89500948	          9.82994557	
          0.02877899	        -14.97809625	          0.04510145	          0.88118884	          0.90857168	         36.24774220	        -21.21386832	         -9.73448517	          1.82999905	         12.34098362	          9.95683234	
          0.03837199	        -14.92027015	          0.06044789	          0.88042315	          1.07017054	         35.38469401	        -23.18475788	        -10.04864544	          0.36348166	         11.77216778	         10.09130556	
          0.04796499	        -14.87313102	          0.07551432	          0.87998594	          1.34920447	         34.52670587	        -25.20906235	        -10.32875336	         -0.91988354	         11.22248829	         10.21012570	
          0.05755799	        -14.84523545	          0.09005378	          0.88013886	          1.77392607	         33.71103934	        -27.14664501	        -10.58698941	         -1.92216340	         10.69179906	         10.29938350	
          0.06715099	        -14.83892792	          0.10400329	          0.88103777	          2.34023187	         32.94017187	        -28.93477842	        -10.81825734	         -2.67270777	         10.19472520	         10.35793934	
          0.07674398	        -14.84952477	          0.11744600	          0.88264209	          3.03135770	         32.19558435	        -30.59413099	        -11.01055707	         -3.18095219	          9.74753635	         10.39193316	
          0.08633698	        -14.87043539	          0.13050605	          0.88474224	          3.82680452	         31.45616297	        -32.15390663	        -11.15495230	         -3.45966118	          9.36170971	         10.40838504	
          0.09592998	        -14.89629633	          0.14329086	          0.88710574	          4.71102135	         30.70509644	        -33.63174740	        -11.24461364	         -3.52439706	          9.04351053	         10.41260827	
          0.10552298	        -14.92367051	          0.15587468	          0.88954991	          5.67197703	         29.93292722	        -35.03607811	        -11.27760221	         -3.39018182	          8.79455149	         10.40779993	
          0.11511597	        -14.95066485	          0.16830447	          0.89195114	          6.70066016	         29.13513062	        -36.36815087	        -11.25434873	         -3.07331996	          8.61379664	         10.39571815	
          0.12470897	        -14.97631774	          0.18061029	          0.89423018	          7.78966431	         28.31015823	        -37.62488386	        -11.17685463	         -2.59055020	          8.49859955	         10.37737317	
          0.13430197	        -15.00013979	          0.19281246	          0.89633663	          8.93281258	         27.45837916	        -38.80140914	        -11.04859554	         -1.95874130	          8.44521112	         10.35338033	
          0.14389497	        -15.02186384	          0.20492604	          0.89823804	         10.12456316	         26.58144164	        -39.89162559	        -10.87440633	         -1.19483871	          8.44908503	         10.32419004	
          0.15348797	        -15.04131821	          0.21696345	          0.89991342	         11.35955590	         25.68193690	        -40.88878489	        -10.66031597	         -0.31601059	          8.50507387	         10.29020923	
          0.16308096	        -15.05837920	          0.22893559	          0.90135014	         12.63236926	         24.76316617	        -41.78570063	        -10.41334285	          0.66035299	          8.60759110	         10.25185410	
          0.17267396	        -15.07296039	          0.24085194	          0.90254331	         13.93763952	         23.82909490	        -42.57472908	        -10.14145751	          1.71668743	          8.75082054	         10.20951734	
          0.18226696	        -15.08504552	          0.25272014	          0.90349619	         15.27034001	         22.88415841	        -43.24778331	         -9.85250462	          2.83532299	          8.92888746	         10.16351943	
          0.19185996	        -15.09475625	          0.26454745	          0.90421941	         16.62453275	         21.93227606	        -43.79728940	         -9.55356500	          3.99845434	          9.13531229	         10.11432961	
          0.20145296	        -15.10225701	          0.27634011	          0.90472996	         17.99437848	         20.97761676	        -44.21552972	         -9.25217531	          5.18823998	          9.36243184	         10.06237795	
          0.21104595	        -15.10769174	          0.28810366	          0.90504857	         19.37436451	         20.02472901	        -44.49473537	         -8.95616112	          6.38686246	          9.60219889	         10.00800931	
          0.22063895	        -15.11121072	          0.29984407	          0.90519669	         20.75803558	         19.07835624	        -44.62791707	         -8.67377104	          7.57653079	          9.84668230	          9.95160473	
          0.23023195	        -15.11303631	          0.31156841	          0.90519459	         22.13846802	         18.14171431	        -44.60943576	         -8.41059494	          8.73957398	         10.08854944	          9.89370053	
          0.23982495	        -15.11348227	          0.32328498	          0.90506039	         23.50875426	         17.21570472	        -44.43520822	         -8.16809754	          9.85862548	         10.32113907	          9.83503136	
          0.24941795	        -15.11282866	          0.33500248	          0.90480960	         24.86102114	         16.30180184	        -44.10317301	         -7.94917309	         10.91695036	         10.53767984	          9.77632357	
          0.25901094	        -15.11132037	          0.34672911	          0.90445531	         26.18729020	         15.40215530	        -43.61240400	         -7.75743023	         11.89910320	         10.73213032	          9.71819843	
          0.26860394	        -15.10919934	          0.35847396	          0.90400818	         27.47873033	         14.51833798	        -42.96595680	         -7.59592591	         12.79168015	         10.89988256	          9.66139257	
          0.27819694	        -15.10672502	          0.37024542	          0.90347732	         28.72736984	         13.65127824	        -42.16828991	         -7.46666285	         13.58444676	         11.03801465	          9.60659306	
          0.28778994	        -15.10416280	          0.38205012	          0.90287079	         29.92698612	         12.80182492	        -41.22376797	         -7.37070482	         14.27130775	         11.14541437	          9.55429024	
          0.29738293	        -15.10175182	          0.39389437	          0.90219508	         31.07187151	         11.97067879	        -40.13908724	         -7.30971578	         14.85065389	         11.22281150	          9.50492539	
          0.30697593	        -15.09971338	          0.40578250	          0.90145552	         32.15909460	         11.15816099	        -38.91969453	         -7.28459079	         15.32530509	         11.27301986	          9.45868626	
          0.31656893	        -15.09825794	          0.41771816	          0.90065587	         33.18726961	         10.36415839	        -37.57059256	         -7.29573969	         15.70153255	         11.30047978	          9.41564228	
          0.32616193	        -15.09760164	          0.42970470	          0.89979806	         34.15579954	          9.58842886	        -36.09718539	         -7.34315967	         15.98770001	         11.31048748	          9.37577410	
          0.33575493	        -15.09802040	          0.44174681	          0.89888223	         35.06308324	          8.83037226	        -34.50720216	         -7.42634211	         16.19294101	         11.30828916	          9.33917105	
          0.34534792	        -15.09989358	          0.45385104	          0.89790726	         35.90561644	          8.08897128	        -32.80870117	         -7.54434347	         16.32636542	         11.29750397	          9.30614704	
          0.35494092	        -15.10353639	          0.46602553	          0.89687206	         36.67887348	          7.36388437	        -31.01328823	         -7.69750077	         16.39674910	         11.27899442	          9.27708470	
          0.36453392	        -15.10902429	          0.47828224	          0.89577929	         37.37618183	          6.65597723	        -29.14683214	         -7.88941122	         16.41223418	         11.25113594	          9.25257357	
          0.37412692	        -15.11639346	          0.49063935	          0.89464137	         37.98464718	          5.96725881	        -27.24321195	         -8.12623431	         16.38010998	         11.20782942	          9.23391191	
          0.38371992	        -15.12566843	          0.50311831	          0.89347999	         38.48855020	          5.30088757	        -25.33459975	         -8.41506952	         16.30677421	         11.13662187	          9.22281113	
          0.39331291	        -15.13653469	          0.51573787	          0.89231764	         38.87846472	          4.66128543	        -23.44887021	         -8.76439729	         16.19761890	         11.02122120	          9.22045207	
          0.40290591	        -15.14820795	          0.52851258	          0.89117226	         39.15422341	          4.05368079	        -21.60776754	         -9.18398121	         16.05677664	         10.84508586	          9.22724233	
          0.41249891	        -15.15948388	          0.54145527	          0.89005811	         39.32269600	          3.48334221	        -19.83282594	         -9.68407647	         15.88685762	         10.59390705	          9.24310953	
          0.42209191	        -15.16913623	          0.55457978	          0.88898732	         39.39115332	          2.95517145	        -18.13910865	        -10.27440227	         15.68906429	         10.25484651	          9.26813614	
          0.43168491	        -15.17601519	          0.56790058	          0.88796908	         39.36643834	          2.47360484	        -16.53853052	        -10.96354743	         15.46330263	          9.81577822	          9.30255931	
          0.44127790	        -15.17886143	          0.58143187	          0.88700867	         39.25615519	          2.04325260	        -15.04820120	        -11.76051169	         15.20829894	          9.26587034	          9.34651905	
